<svg width="906" height="1152" viewBox="0 0 906 1152" fill="none" xmlns="http://www.w3.org/2000/svg">
<path d="M-83.406 1128.06L-111.329 1634.42L-129.794 1633.95L-102.185 1133.25C-99.1783 1132.48 -96.1712 1131.71 -93.1752 1130.88C-89.9114 1129.98 -86.6587 1129.02 -83.406 1128.06Z" fill="#51A9E3"/>
<path d="M-262.049 1616.74L-280.012 1613.08L-171.242 1146.13C-164.736 1145.21 -158.219 1144.2 -151.702 1143.06L-262.027 1616.72L-262.049 1616.74Z" fill="#51A9E3"/>
<path d="M686.028 347.808L694.355 363.874L214.58 618.708C211.957 613.292 209.185 607.957 206.253 602.643L686.028 347.808Z" fill="#6ADDB2"/>
<path d="M746.114 486.492L751.481 503.877L235.263 673.447C233.658 667.601 231.849 661.81 229.918 656.045L746.114 486.492Z" fill="#6ADDB2"/>
<path d="M781.051 633.868L783.281 652.037L246.203 730.568C245.634 724.492 244.926 718.42 244.034 712.386L781.034 633.847L781.051 633.868Z" fill="#6ADDB2"/>
<path d="M789.762 785.381L788.803 803.772L247.236 788.388C247.74 782.266 248.065 776.142 248.234 770.001L789.762 785.381Z" fill="#6ADDB2"/>
<path d="M771.999 936.406L767.836 954.461L238.34 845.178C239.893 839.206 241.257 833.171 242.486 827.101L772.005 936.367L771.999 936.406Z" fill="#6ADDB2"/>
<path d="M728.276 1082.33L721.051 1099.51L219.764 899.331C222.333 893.643 224.728 887.915 226.972 882.13L728.276 1082.33Z" fill="#6ADDB2"/>
<path d="M659.989 1218.72L649.88 1234.49L192.042 949.083C195.559 943.912 198.948 938.665 202.151 933.318L659.989 1218.72Z" fill="#6ADDB2"/>
<path d="M569.142 1341.52L556.435 1355.39L155.903 992.993C160.298 988.47 164.547 983.849 168.627 979.149L569.142 1341.52Z" fill="#6ADDB2"/>
<path d="M107.767 1007.86L120.146 1023.9C122.647 1021.97 125.092 1020.01 127.52 1018.03L458.559 1446.98L443.62 1458.53L112.597 1029.6C115.132 1027.71 117.645 1025.83 120.146 1023.9" fill="#6ADDB2"/>
<path d="M330.063 1530.49L313.467 1539.31L66.2352 1062.02C71.577 1058.73 76.8906 1055.35 82.1534 1051.9L330.063 1530.49Z" fill="#6ADDB2"/>
<path d="M189.604 1590.66L171.844 1596.48L15.4015 1090.31C21.0752 1087.52 26.6982 1084.66 32.2987 1081.69L189.588 1590.64L189.604 1590.66Z" fill="#6ADDB2"/>
<path d="M41.2065 1625.68L22.8176 1628.36L-40.6949 1114.25C-34.7155 1112.02 -28.742 1109.7 -22.8357 1107.28L41.212 1625.64L41.2065 1625.68Z" fill="#6ADDB2"/>
<path d="M173.817 553.677L602.617 222.179L613.619 236.435L184.797 567.95C182.988 565.47 181.173 563.027 179.281 560.576C177.39 558.125 175.637 555.944 173.795 553.694L173.817 553.677Z" fill="#6ADDB2"/>
<path d="M167.26 626.491L190.523 614.077C192.036 616.873 193.483 619.72 194.891 622.564L171.627 634.977L167.26 626.491Z" fill="#F22F46"/>
<path d="M187.188 671.858L212.118 663.619C213.105 666.657 214.048 669.728 214.914 672.791L190.023 681.033L187.21 671.84L187.188 671.858Z" fill="#F22F46"/>
<path d="M198.905 719.979L224.638 716.151C225.071 719.347 225.465 722.539 225.797 725.744L200.086 729.554L198.927 719.962L198.905 719.979Z" fill="#F22F46"/>
<path d="M202.147 769.366L227.903 770.012C227.757 773.245 227.61 776.478 227.364 779.72L201.608 779.075L202.147 769.366Z" fill="#F22F46"/>
<path d="M196.732 818.571L221.82 823.681C221.127 826.856 220.373 830.044 219.586 833.188L194.514 828.1L196.732 818.571Z" fill="#F22F46"/>
<path d="M182.859 866.075L206.57 875.481C205.34 878.519 204.055 881.532 202.731 884.54L179.02 875.134L182.859 866.075Z" fill="#F22F46"/>
<path d="M160.962 910.428L182.58 923.861C180.846 926.667 179.078 929.43 177.255 932.167L155.62 918.712L160.968 910.388L160.962 910.428Z" fill="#F22F46"/>
<path d="M131.676 950.285L150.524 967.344C148.339 969.805 146.098 972.239 143.84 974.652L124.993 957.594L131.676 950.285Z" fill="#F22F46"/>
<path d="M94.433 985.217L110.834 1004.62C108.346 1006.78 105.805 1008.91 103.251 1011.01L86.8495 991.602L94.433 985.217Z" fill="#F22F46"/>
<path d="M54.7924 1011.92L67.267 1036.09C64.477 1037.9 61.7261 1039.72 58.9193 1041.52L46.0586 1016.57L54.7924 1011.92Z" fill="#F22F46"/>
<path d="M9.54316 1031.81L19.4303 1064.03C16.4819 1065.59 13.5111 1067.16 10.5292 1068.67L0.167185 1034.9L9.54316 1031.81Z" fill="#F22F46"/>
<path d="M139.779 585.286L160.626 569.127C161.556 570.335 162.53 571.508 163.476 572.738C164.488 574.053 165.462 575.365 166.436 576.676L145.59 592.835L139.779 585.286Z" fill="#F22F46"/>
<path d="M411.452 23.0632L403.562 29.1621L38.5305 -443.744L46.4212 -449.843L411.452 23.0632Z" fill="#F2BE5A"/>
<path d="M372.335 53.2849L364.444 59.3838L-0.586662 -413.522L7.30397 -419.621L372.335 53.2849Z" fill="#F2BE5A"/>
<path d="M333.411 83.3669L325.521 89.4658L-39.5104 -383.44L-31.6198 -389.539L333.411 83.3669Z" fill="#F2BE5A"/>
<path d="M294.227 113.617L286.336 119.716L-78.695 -353.19L-70.8044 -359.289L294.227 113.617Z" fill="#F2BE5A"/>
<path d="M255.299 143.698L247.408 149.797L-117.623 -323.109L-109.732 -329.208L255.299 143.698Z" fill="#F2BE5A"/>
<path d="M216.211 173.935L208.32 180.034L-156.711 -292.872L-148.82 -298.97L216.211 173.935Z" fill="#F2BE5A"/>
<path d="M177.275 204.021L169.385 210.12L-195.646 -262.786L-187.756 -268.885L177.275 204.021Z" fill="#F2BE5A"/>
<path d="M138.093 234.274L130.202 240.373L-234.829 -232.533L-226.938 -238.632L138.093 234.274Z" fill="#F2BE5A"/>
<path d="M99.1582 264.357L91.2676 270.456L-273.763 -202.45L-265.873 -208.549L99.1582 264.357Z" fill="#F2BE5A"/>
<path d="M60.0576 294.573L52.167 300.672L-312.864 -172.234L-304.973 -178.333L60.0576 294.573Z" fill="#F2BE5A"/>
<path d="M21.1426 324.678L13.252 330.777L-351.779 -142.128L-343.888 -148.227L21.1426 324.678Z" fill="#F2BE5A"/>
</svg>
