<svg width="925" height="1152" viewBox="0 0 925 1152" fill="none" xmlns="http://www.w3.org/2000/svg">
<path d="M716.227 598.567L287.426 930.067L276.425 915.812L705.248 584.295C707.057 586.776 708.872 589.218 710.763 591.669C712.655 594.12 714.408 596.301 716.249 598.55L716.227 598.567Z" fill="#6ADDB2"/>
<path d="M204.033 804.43L195.707 788.365L675.483 533.521C678.105 538.937 680.877 544.272 683.809 549.586L204.033 804.43Z" fill="#6ADDB2"/>
<path d="M143.951 665.757L138.585 648.372L654.804 478.788C656.408 484.633 658.217 490.424 660.148 496.19L143.951 665.757Z" fill="#6ADDB2"/>
<path d="M109.036 518.395L106.806 500.227L643.884 421.678C644.454 427.754 645.162 433.826 646.053 439.86L109.053 518.417L109.036 518.395Z" fill="#6ADDB2"/>
<path d="M100.326 366.893L101.286 348.501L642.853 363.866C642.349 369.989 642.023 376.112 641.853 382.253L100.326 366.893Z" fill="#6ADDB2"/>
<path d="M118.097 215.855L122.261 197.799L651.757 307.064C650.203 313.036 648.84 319.071 647.61 325.141L118.092 215.894L118.097 215.855Z" fill="#6ADDB2"/>
<path d="M161.796 69.9161L169.022 52.7368L670.309 252.9C667.74 258.588 665.344 264.316 663.1 270.101L161.796 69.9161Z" fill="#6ADDB2"/>
<path d="M230.083 -66.4795L240.193 -82.2455L698.03 203.147C694.513 208.318 691.124 213.565 687.92 218.912L230.083 -66.4795Z" fill="#6ADDB2"/>
<path d="M320.948 -189.255L333.656 -203.122L734.187 159.264C729.792 163.788 725.543 168.409 721.463 173.109L320.948 -189.255Z" fill="#6ADDB2"/>
<path d="M782.302 144.385L769.923 128.345C767.422 130.278 764.977 132.239 762.549 134.221L431.511 -294.73L446.451 -306.281L777.473 122.649C774.938 124.539 772.425 126.411 769.923 128.345" fill="#6ADDB2"/>
<path d="M559.986 -378.232L576.582 -387.052L823.805 90.2348C818.462 93.53 813.149 96.9085 807.886 100.353L559.986 -378.232Z" fill="#6ADDB2"/>
<path d="M700.49 -438.396L718.251 -444.224L874.679 61.9534C869.005 64.7419 863.381 67.5961 857.781 70.5724L700.507 -438.374L700.49 -438.396Z" fill="#6ADDB2"/>
<path d="M848.888 -473.424L867.277 -476.099L930.773 38.0058C924.793 40.2341 918.819 42.5627 912.913 44.9786L848.882 -473.385L848.888 -473.424Z" fill="#6ADDB2"/>
<path d="M974.149 24.163L1000.73 -482.212L1019.19 -481.694L992.905 19.02C989.902 19.7822 986.898 20.5444 983.905 21.3675C980.646 22.2588 977.397 23.2109 974.149 24.163Z" fill="#6ADDB2"/>
<path d="M1151.57 -464.516L1169.54 -460.808L1061.86 6.13646C1055.36 7.0462 1048.84 8.03397 1042.33 9.16036L1151.55 -464.499L1151.57 -464.516Z" fill="#51A9E3"/>
<path d="M722.814 525.752L699.551 538.166C698.038 535.37 696.591 532.523 695.183 529.68L718.447 517.266L722.814 525.752Z" fill="#F22F46"/>
<path d="M702.908 480.397L677.978 488.635C676.99 485.598 676.047 482.526 675.182 479.463L700.073 471.221L702.885 480.414L702.908 480.397Z" fill="#F22F46"/>
<path d="M691.159 432.268L665.425 436.095C664.993 432.899 664.599 429.707 664.267 426.503L689.978 422.693L691.137 432.285L691.159 432.268Z" fill="#F22F46"/>
<path d="M687.93 382.873L662.173 382.227C662.32 378.994 662.466 375.76 662.712 372.519L688.468 373.164L687.93 382.873Z" fill="#F22F46"/>
<path d="M693.337 333.671L668.249 328.561C668.941 325.386 669.695 322.198 670.483 319.053L695.554 324.141L693.337 333.671Z" fill="#F22F46"/>
<path d="M707.224 286.181L683.514 276.776C684.743 273.737 686.028 270.725 687.353 267.717L711.063 277.122L707.224 286.181Z" fill="#F22F46"/>
<path d="M729.123 241.835L707.505 228.402C709.239 225.596 711.007 222.833 712.83 220.096L734.465 233.551L729.118 241.875L729.123 241.835Z" fill="#F22F46"/>
<path d="M758.393 201.956L739.546 184.898C741.731 182.437 743.972 180.002 746.23 177.589L765.077 194.647L758.393 201.956Z" fill="#F22F46"/>
<path d="M793.992 165.853L778.25 145.911C780.808 143.834 783.418 141.792 786.04 139.774L801.782 159.716L793.992 165.853Z" fill="#F22F46"/>
<path d="M835.296 140.333L822.821 116.166C825.611 114.351 828.362 112.531 831.169 110.738L844.029 135.686L835.296 140.333Z" fill="#F22F46"/>
<path d="M880.555 120.45L870.667 88.2242C873.616 86.6685 876.587 85.0954 879.568 83.5832L889.93 117.355L880.555 120.45Z" fill="#F22F46"/>
<path d="M928.534 108.728L923.118 64.0136C926.263 62.7211 929.386 61.4461 932.525 60.1928L938.237 107.286L928.534 108.728Z" fill="#F22F46"/>
<path d="M750.307 566.979L729.46 583.138C728.531 581.93 727.556 580.756 726.61 579.527C725.598 578.211 724.624 576.9 723.65 575.589L744.496 559.43L750.307 566.979Z" fill="#F22F46"/>
<path d="M1280.38 1264.9L1272.49 1271L907.459 798.092L915.349 791.993L1280.38 1264.9Z" fill="#F2BE5A"/>
<path d="M1241.45 1294.99L1233.56 1301.08L868.524 828.178L876.415 822.079L1241.45 1294.99Z" fill="#F2BE5A"/>
<path d="M1202.26 1325.24L1194.37 1331.34L829.342 858.431L837.232 852.332L1202.26 1325.24Z" fill="#F2BE5A"/>
<path d="M1163.33 1355.32L1155.44 1361.42L790.407 888.514L798.297 882.415L1163.33 1355.32Z" fill="#F2BE5A"/>
<path d="M1124.23 1385.54L1116.34 1391.64L751.306 918.73L759.197 912.631L1124.23 1385.54Z" fill="#F2BE5A"/>
<path d="M1085.31 1415.64L1077.42 1421.74L712.391 948.835L720.282 942.737L1085.31 1415.64Z" fill="#F2BE5A"/>
<path d="M1046.13 1445.89L1038.24 1451.99L673.206 979.083L681.096 972.985L1046.13 1445.89Z" fill="#F2BE5A"/>
<path d="M1007.19 1475.98L999.304 1482.08L634.273 1009.17L642.164 1003.07L1007.19 1475.98Z" fill="#F2BE5A"/>
<path d="M968.086 1506.2L960.196 1512.29L595.165 1039.39L603.055 1033.29L968.086 1506.2Z" fill="#F2BE5A"/>
<path d="M929.154 1536.28L921.263 1542.38L556.232 1069.48L564.123 1063.38L929.154 1536.28Z" fill="#F2BE5A"/>
<path d="M889.986 1566.55L882.096 1572.65L517.065 1099.75L524.955 1093.65L889.986 1566.55Z" fill="#F2BE5A"/>
<path d="M851.851 1596.03L843.96 1602.12L478.929 1129.22L486.82 1123.12L851.851 1596.03Z" fill="#F2BE5A"/>
</svg>
