<svg width="504" height="766" viewBox="0 0 504 766" fill="none" xmlns="http://www.w3.org/2000/svg">
<circle cx="66.5" cy="719.5" r="24.5" stroke="#1F2A43" stroke-width="2"/>
<circle cx="65.5" cy="719.5" r="7.5" stroke="#1F2A43" stroke-width="2"/>
<circle cx="29.5" cy="121.5" r="24.5" stroke="#1F2A43" stroke-width="2"/>
<circle cx="28.5" cy="121.5" r="7.5" stroke="#1F2A43" stroke-width="2"/>
<circle cx="316.5" cy="32.5" r="24.5" stroke="#1F2A43" stroke-width="2"/>
<circle cx="315.5" cy="32.5" r="7.5" stroke="#1F2A43" stroke-width="2"/>
<circle cx="472.5" cy="181.5" r="24.5" stroke="#1F2A43" stroke-width="2"/>
<circle cx="471.5" cy="181.5" r="7.5" stroke="#1F2A43" stroke-width="2"/>
<circle cx="367.5" cy="537.5" r="24.5" stroke="#1F2A43" stroke-width="2"/>
<circle cx="366.5" cy="537.5" r="7.5" stroke="#1F2A43" stroke-width="2"/>
<path d="M377.776 573.446L79.167 741.44C62.7774 750.661 42.3857 739.574 41.2135 720.806L3.86628 122.826C3.13336 111.091 10.5192 100.377 21.7471 96.8862L310.005 7.27923C318.851 4.52959 328.491 6.79281 335.189 13.1913L490.015 161.097C496.877 167.653 499.531 177.478 496.903 186.598L389.775 558.284C387.921 564.717 383.611 570.163 377.776 573.446Z" stroke="#DE2D46" stroke-width="5"/>
</svg>
