<svg width="914" height="911" viewBox="0 0 914 911" fill="none" xmlns="http://www.w3.org/2000/svg">
<circle cx="271.5" cy="792.5" r="24.5" stroke="#1F2A43" stroke-width="2"/>
<circle cx="270.5" cy="792.5" r="7.5" stroke="#1F2A43" stroke-width="2"/>
<circle cx="234.5" cy="194.5" r="24.5" stroke="#1F2A43" stroke-width="2"/>
<circle cx="233.5" cy="194.5" r="7.5" stroke="#1F2A43" stroke-width="2"/>
<circle cx="521.5" cy="105.5" r="24.5" stroke="#1F2A43" stroke-width="2"/>
<circle cx="520.5" cy="105.5" r="7.5" stroke="#1F2A43" stroke-width="2"/>
<circle cx="677.5" cy="254.5" r="24.5" stroke="#1F2A43" stroke-width="2"/>
<circle cx="676.5" cy="254.5" r="7.5" stroke="#1F2A43" stroke-width="2"/>
<circle cx="572.5" cy="610.5" r="24.5" stroke="#1F2A43" stroke-width="2"/>
<circle cx="571.5" cy="610.5" r="7.5" stroke="#1F2A43" stroke-width="2"/>
<path d="M582.776 646.446L284.167 814.44C267.777 823.661 247.386 812.574 246.213 793.806L208.866 195.826C208.133 184.091 215.519 173.377 226.747 169.886L515.005 80.2792C523.851 77.5296 533.491 79.7928 540.189 86.1913L695.015 234.097C701.877 240.653 704.531 250.478 701.903 259.598L594.775 631.284C592.921 637.717 588.611 643.163 582.776 646.446Z" stroke="#DE2D46" stroke-width="5"/>
</svg>
