<svg width="672" height="911" viewBox="0 0 672 911" fill="none" xmlns="http://www.w3.org/2000/svg">
<circle cx="150.5" cy="792.5" r="24.5" stroke="#1F2A43" stroke-width="2"/>
<circle cx="149.5" cy="792.5" r="7.5" stroke="#1F2A43" stroke-width="2"/>
<circle cx="113.5" cy="194.5" r="24.5" stroke="#1F2A43" stroke-width="2"/>
<circle cx="112.5" cy="194.5" r="7.5" stroke="#1F2A43" stroke-width="2"/>
<circle cx="400.5" cy="105.5" r="24.5" stroke="#1F2A43" stroke-width="2"/>
<circle cx="399.5" cy="105.5" r="7.5" stroke="#1F2A43" stroke-width="2"/>
<circle cx="556.5" cy="254.5" r="24.5" stroke="#1F2A43" stroke-width="2"/>
<circle cx="555.5" cy="254.5" r="7.5" stroke="#1F2A43" stroke-width="2"/>
<circle cx="451.5" cy="610.5" r="24.5" stroke="#1F2A43" stroke-width="2"/>
<circle cx="450.5" cy="610.5" r="7.5" stroke="#1F2A43" stroke-width="2"/>
<path d="M461.776 646.446L163.167 814.44C146.777 823.661 126.386 812.574 125.213 793.806L87.8663 195.826C87.1334 184.091 94.5192 173.377 105.747 169.886L394.005 80.2792C402.851 77.5296 412.491 79.7928 419.189 86.1913L574.015 234.097C580.877 240.653 583.531 250.478 580.903 259.598L473.775 631.284C471.921 637.717 467.611 643.163 461.776 646.446Z" stroke="#DE2D46" stroke-width="5"/>
</svg>
