<svg width="914" height="1078" viewBox="0 0 914 1078" fill="none" xmlns="http://www.w3.org/2000/svg">
<circle cx="271.5" cy="875.5" r="24.5" stroke="#1F2A43" stroke-width="2"/>
<circle cx="270.5" cy="875.5" r="7.5" stroke="#1F2A43" stroke-width="2"/>
<circle cx="234.5" cy="277.5" r="24.5" stroke="#1F2A43" stroke-width="2"/>
<circle cx="233.5" cy="277.5" r="7.5" stroke="#1F2A43" stroke-width="2"/>
<circle cx="521.5" cy="188.5" r="24.5" stroke="#1F2A43" stroke-width="2"/>
<circle cx="520.5" cy="188.5" r="7.5" stroke="#1F2A43" stroke-width="2"/>
<circle cx="677.5" cy="337.5" r="24.5" stroke="#1F2A43" stroke-width="2"/>
<circle cx="676.5" cy="337.5" r="7.5" stroke="#1F2A43" stroke-width="2"/>
<circle cx="572.5" cy="693.5" r="24.5" stroke="#1F2A43" stroke-width="2"/>
<circle cx="571.5" cy="693.5" r="7.5" stroke="#1F2A43" stroke-width="2"/>
<path d="M582.776 729.446L284.167 897.44C267.777 906.661 247.386 895.574 246.213 876.806L208.866 278.826C208.133 267.091 215.519 256.377 226.747 252.886L515.005 163.279C523.851 160.53 533.491 162.793 540.189 169.191L695.015 317.097C701.877 323.653 704.531 333.478 701.903 342.598L594.775 714.284C592.921 720.717 588.611 726.163 582.776 729.446Z" stroke="#DE2D46" stroke-width="5"/>
</svg>
