<svg width="393" height="852" viewBox="0 0 393 852" fill="none" xmlns="http://www.w3.org/2000/svg">
<g clip-path="url(#clip0_32_5725)">
<path d="M17.7304 431.356L-228.862 437.815L-228.818 428.816L15.0177 422.428C15.4223 423.86 15.8269 425.292 16.2609 426.716C16.7311 428.268 17.2308 429.812 17.7304 431.356Z" fill="#51A9E3"/>
<path d="M-225.781 364.028L-224.154 355.133L6.16691 389.422C6.68337 392.553 7.23823 395.688 7.86114 398.816L-225.772 364.039L-225.781 364.028Z" fill="#51A9E3"/>
<path d="M-209.908 291.977L-206.74 283.448L0.924985 352.522C1.04109 355.781 1.20638 359.033 1.43155 362.269L-209.897 291.968L-209.908 291.977Z" fill="#51A9E3"/>
<path d="M-0.386152 321.595L-181.737 223.871L-177.084 215.968L0.503991 311.668C0.431244 312.413 0.330122 313.148 0.257374 313.893C0.00555648 316.474 -0.20537 319.038 -0.386152 321.595Z" fill="#51A9E3"/>
<path d="M-142.122 161.696L-136.089 154.657L6.43606 267.005C5.5649 270.27 4.7402 273.566 3.97454 276.866L-142.133 161.705L-142.122 161.696Z" fill="#51A9E3"/>
<path d="M-92.2886 107.391L-85.0107 101.418L20.6545 219.642C19.1977 222.76 17.7988 225.9 16.4489 229.052L-92.2886 107.391Z" fill="#51A9E3"/>
<path d="M-32.4431 62.3113L-24.3772 57.5956L43.7561 171.687C41.7929 174.517 39.8848 177.388 38.0035 180.289L-32.4539 62.3203L-32.4431 62.3113Z" fill="#51A9E3"/>
<path d="M33.4489 28.1582L42.0824 24.8511L79.1293 125.734C76.6866 128.131 74.3091 130.56 71.958 133.02L33.4489 28.1582Z" fill="#51A9E3"/>
<path d="M103.79 5.94505L112.744 4.14866L126.702 85.2007C123.91 87.0364 121.144 88.9024 118.412 90.8282L103.799 5.9552L103.79 5.94505Z" fill="#51A9E3"/>
<path d="M176.699 -3.65448L185.716 -3.89706L185.368 54.1512C182.343 55.3063 179.322 56.51 176.337 57.7543L176.699 -3.65448Z" fill="#51A9E3"/>
<path d="M250.159 -0.380155L258.985 0.954315L252.599 36.4459C249.485 36.8612 246.374 37.3442 243.279 37.8667L250.168 -0.369981L250.159 -0.380155Z" fill="#51A9E3"/>
<path d="M322.024 15.6532L330.427 18.5075L324.453 34.9426C321.422 34.6197 318.367 34.3531 315.319 34.1159L322.034 15.6442L322.024 15.6532Z" fill="#51A9E3"/>
<path d="M421.721 778.127L413.676 782.786L278.979 558.603C281.693 557.123 284.365 555.572 287.024 553.945L421.721 778.127Z" fill="#F2BE5A"/>
<path d="M354.767 812.349L346.138 815.604L255.117 570.438C258.021 569.441 260.894 568.346 263.754 567.193L354.767 812.349Z" fill="#F2BE5A"/>
<path d="M283.465 834.623L274.503 836.369L228.948 577.692C231.947 577.194 234.942 576.628 237.917 575.974L283.476 834.614L283.465 834.623Z" fill="#F2BE5A"/>
<path d="M209.846 844.271L200.816 844.465L201.411 580.214C204.419 580.239 207.426 580.177 210.439 580.039L209.846 844.271Z" fill="#F2BE5A"/>
<path d="M136.076 841.013L127.24 839.627L173.415 577.925C176.34 578.469 179.293 578.918 182.261 579.302L136.095 841.014L136.076 841.013Z" fill="#F2BE5A"/>
<path d="M64.3724 824.938L55.9866 822.022L145.791 570.886C148.57 571.938 151.366 572.903 154.187 573.793L64.3724 824.938Z" fill="#F2BE5A"/>
<path d="M-3.08591 796.569L-10.7701 792.191L119.434 559.295C121.958 560.829 124.515 562.297 127.118 563.672L-3.08591 796.569Z" fill="#F2BE5A"/>
<path d="M-64.2631 756.732L-71.0201 751.013L95.075 543.451C97.283 545.438 99.5348 547.351 101.822 549.178L-64.2631 756.732Z" fill="#F2BE5A"/>
<path d="M83.5506 520.824L76.2107 527.4C77.1551 528.555 78.111 529.682 79.0771 530.8L-117.209 706.662L-122.849 699.761L73.4264 523.908C74.3506 525.082 75.2664 526.245 76.2107 527.4" fill="#F2BE5A"/>
<path d="M-162.401 647.212L-166.821 639.425L55.9597 502.646C57.5987 505.136 59.2767 507.61 60.9852 510.057L-162.401 647.212Z" fill="#F2BE5A"/>
<path d="M-196.703 581.195L-199.739 572.746L40.32 479.003C41.7331 481.67 43.177 484.31 44.679 486.935L-196.693 581.186L-196.703 581.195Z" fill="#F2BE5A"/>
<path d="M-219.104 510.46L-220.643 501.599L26.5874 452.624C27.7434 455.458 28.9476 458.285 30.1931 461.076L-219.085 510.461L-219.104 510.46Z" fill="#F2BE5A"/>
<path d="M306.722 536.677L482.585 732.969L475.343 738.878L299.471 542.576C300.733 541.599 301.974 540.621 303.219 539.605C304.464 538.589 305.571 537.651 306.713 536.667L306.722 536.677Z" fill="#F2BE5A"/>
<path d="M270.792 536.108L277.197 546.964C275.819 547.813 274.415 548.631 273.013 549.43L266.609 538.574L270.792 536.108Z" fill="#F22F46"/>
<path d="M249.556 547.384L253.876 559.212C252.384 559.812 250.874 560.392 249.367 560.934L245.045 549.125L249.565 547.394L249.556 547.384Z" fill="#F22F46"/>
<path d="M226.653 554.774L228.794 567.161C227.226 567.496 225.66 567.812 224.087 568.099L221.954 555.723L226.661 554.785L226.653 554.774Z" fill="#F22F46"/>
<path d="M202.801 558.101L202.749 570.667C201.164 570.721 199.58 570.775 197.99 570.781L198.042 558.215L202.801 558.101Z" fill="#F22F46"/>
<path d="M178.701 557.223L176.471 569.629C174.916 569.415 173.354 569.171 171.813 568.909L174.033 556.511L178.701 557.223Z" fill="#F22F46"/>
<path d="M155.096 552.182L150.782 564.076C149.294 563.594 147.819 563.084 146.345 562.555L150.659 550.662L155.096 552.182Z" fill="#F22F46"/>
<path d="M132.706 543.138L126.45 554.159C125.076 553.423 123.722 552.669 122.381 551.886L128.647 540.856L132.725 543.139L132.706 543.138Z" fill="#F22F46"/>
<path d="M112.205 530.35L104.217 540.153C103.011 539.184 101.816 538.187 100.632 537.182L108.621 527.379L112.205 530.35Z" fill="#F22F46"/>
<path d="M93.8886 513.524L84.6777 522.223C83.6057 521.097 82.5494 519.944 81.5044 518.783L90.7152 510.084L93.8886 513.524Z" fill="#F22F46"/>
<path d="M79.3492 495.24L67.8833 502.214C66.9812 500.927 66.0774 499.659 65.1855 498.363L77.022 491.172L79.3492 495.24Z" fill="#F22F46"/>
<path d="M68.0074 473.984L52.5776 480.014C51.7956 478.64 51.0049 477.255 50.2436 475.863L66.4138 469.544L68.0074 473.984Z" fill="#F22F46"/>
<path d="M60.5279 451.096L38.9241 455.439C38.2645 453.959 37.6136 452.489 36.973 451.01L59.7259 446.433L60.5279 451.096Z" fill="#F22F46"/>
<path d="M57.117 427.291L27.1461 428.011C26.6269 426.446 26.1269 424.881 25.6476 423.299L57.1475 422.551L57.1257 427.302L57.117 427.291Z" fill="#F22F46"/>
<path d="M57.9056 403.267L17.7296 397.195C17.3904 395.547 17.0808 393.891 16.7713 392.235L58.765 398.584L57.9143 403.277L57.9056 403.267Z" fill="#F22F46"/>
<path d="M62.8527 379.744L11.5212 362.54C11.3922 360.82 11.2824 359.102 11.1832 357.374L64.5399 375.251L62.8721 379.745L62.8527 379.744Z" fill="#F22F46"/>
<path d="M71.8058 357.442L9.63835 323.806C9.74928 322.045 9.8691 320.295 10.0102 318.526L74.2438 353.285L71.7951 357.451L71.8058 357.442Z" fill="#F22F46"/>
<path d="M84.4873 336.991L13.589 281.017C13.9702 279.264 14.3711 277.513 14.7828 275.752L87.6462 333.28L84.4784 336.981L84.4873 336.991Z" fill="#F22F46"/>
<path d="M100.5 318.999L25.3405 235.033C26.036 233.347 26.7314 231.662 27.4668 229.979L104.341 315.86L100.5 318.999Z" fill="#F22F46"/>
<path d="M118.212 304.29L48.154 187.354C49.1383 185.819 50.1316 184.293 51.1445 182.77L122.47 301.822L118.212 304.29Z" fill="#F22F46"/>
<path d="M138.303 293.108L82.2321 141.082C83.4671 139.764 84.7285 138.475 85.9917 137.168L142.863 291.364L138.294 293.098L138.303 293.108Z" fill="#F22F46"/>
<path d="M160.211 285.774L127.939 99.6347C129.388 98.5985 130.844 97.5916 132.308 96.5948L164.945 284.834L160.211 285.774Z" fill="#F22F46"/>
<path d="M183.364 282.514L184.444 66.9618C186.031 66.2911 187.624 65.6499 189.218 65.0085L188.121 282.408L183.354 282.523L183.364 282.514Z" fill="#F22F46"/>
<path d="M207.182 283.406L249.45 47.2959C251.094 47.0253 252.728 46.7637 254.37 46.5123L211.833 284.109L207.174 283.396L207.182 283.406Z" fill="#F22F46"/>
<path d="M231.024 288.416L319.107 43.6046C320.714 43.7293 322.312 43.8629 323.926 44.017L235.448 289.951L231.033 288.426L231.024 288.416Z" fill="#F22F46"/>
<path d="M392.187 44.9675L396.057 47.2754L261.612 299.446L257.742 297.138L392.187 44.9675Z" fill="#F22F46"/>
<path d="M454.381 85.0034L457.864 88.0078L281.647 312.924L278.164 309.92L454.381 85.0034Z" fill="#F22F46"/>
<path d="M289.701 521.318L298.011 530.85C297.413 531.352 296.833 531.874 296.224 532.385C295.573 532.932 294.923 533.46 294.273 533.988L285.963 524.456L289.701 521.318Z" fill="#F22F46"/>
<path d="M395.008 436.606L392.033 432.961L608.157 239.05L611.132 242.695L395.008 436.606Z" fill="#F2BE5A"/>
<path d="M378.979 418.786L376.004 415.142L592.128 221.231L595.103 224.875L378.979 418.786Z" fill="#F2BE5A"/>
<path d="M362.88 400.888L359.905 397.243L576.028 203.332L579.003 206.977L362.88 400.888Z" fill="#F2BE5A"/>
<path d="M346.853 383.069L343.878 379.424L560.002 185.513L562.977 189.158L346.853 383.069Z" fill="#F2BE5A"/>
<path d="M330.725 365.143L327.75 361.498L543.874 167.587L546.849 171.232L330.725 365.143Z" fill="#F2BE5A"/>
<path d="M315.025 347.688L312.05 344.043L528.173 150.132L531.148 153.777L315.025 347.688Z" fill="#F2BE5A"/>
<path d="M298.89 329.77L295.916 326.125L512.039 132.214L515.014 135.859L298.89 329.77Z" fill="#F2BE5A"/>
</g>
<defs>
<clipPath id="clip0_32_5725">
<rect width="393" height="852" fill="white"/>
</clipPath>
</defs>
</svg>
